<svg xmlns="http://www.w3.org/2000/svg" width="360" height="360" viewBox="0 0 360 360">
  <g fill="none" fill-rule="evenodd" transform="translate(30 50)">
    <mask id="a" fill="#fff">
      <path d="M150 0a150 150 0 100 300 150 150 0 000-300z"/>
    </mask>
    <path fill="#C00" d="M150 0a150 150 0 100 300 150 150 0 000-300z"/>
    <g mask="url(#a)">
      <path fill="#2CB56E" d="M254.3 207.5c-.6-8.1-7.4-14.5-15.8-14.5s-15.2 6.4-15.8 14.5a15.9 15.9 0 00-22.7 14v9.5h77v-9.5c0-11.5-12.3-19-22.7-14"/>
      <path fill="#FFF" d="M62 231h177V113H62z"/>
      <path fill="#333" d="M62 127h177V66H62z"/>
      <path fill="#FFF" d="M167 85l-55 47h110z"/>
      <path fill="#C00" d="M197 231h-57v-76.5a27.6 27.6 0 0127.6-27.5h1.8a27.6 27.6 0 0127.6 27.5V231z"/>
      <path fill="#720000" d="M186 178.5a4.5 4.5 0 11-9 0 4.5 4.5 0 019 0"/>
      <path fill="#AFAFAF" d="M209 181h11v-18h-11z"/>
      <path fill="#8FDEF6" d="M83 181h36v-36H83z"/>
      <path fill="#2CB56E" d="M73.7 202c-.7-10-9.3-18-19.7-18-10.5 0-19 7.9-19.7 17.9-13-6-28.3 3.2-28.3 17.4V231h96v-11.7c0-14.3-15.3-23.4-28.3-17.4"/>
      <path fill="#720000" d="M-100 344h500V230h-500z"/>
    </g>
  </g>
</svg>
